<svg width="100%" height="100%" viewBox="0 0 1440 810" fill="none" xmlns="http://www.w3.org/2000/svg">
  <g filter="url(#filter0_f_184_68)">
    <path fill-rule="evenodd" clip-rule="evenodd" d="M1489.34 309.532C1515.24 276.67 1531 233.186 1531 185.5C1531 83.0512 1458.25 0 1368.5 0C1278.75 0 1206 83.0512 1206 185.5C1206 249.886 1234.74 306.611 1278.37 339.873C1273.51 373.673 1274.02 411.439 1280.98 449.923C1301.37 562.732 1369.36 639.005 1432.84 620.285C1496.33 601.565 1531.26 494.94 1510.87 382.132C1506.09 355.67 1498.68 331.218 1489.34 309.532Z" fill="#361988" fill-opacity="0.5"/>
    <path fill-rule="evenodd" clip-rule="evenodd" d="M171.064 588.641C171.064 425.131 281.149 292.03 418.446 287.352C418.375 285.514 418.289 283.68 418.19 281.85C519.594 273.012 598 213.541 598 141.491C598 63.3478 505.771 0 392 0C346.412 0 304.283 10.1712 270.16 27.3899C237.805 9.80519 201.8 0 163.859 0C23.1044 0 -91 134.948 -91 301.416C-91 354.576 -79.3635 404.523 -58.9386 447.886C-59.6381 457.444 -60 467.213 -60 477.147C-60 590.642 -12.766 682.647 45.5 682.647C80.0737 682.647 110.763 650.253 130.005 600.196C141.081 601.934 152.381 602.832 163.859 602.832C166.36 602.832 168.853 602.789 171.336 602.705C171.155 598.044 171.064 593.355 171.064 588.641Z" fill="#361988" fill-opacity="0.5"/>
  </g>
  <defs>
    <filter id="filter0_f_184_68" x="-166" y="-75" width="1772" height="832.647" filterUnits="userSpaceOnUse" color-interpolation-filters="sRGB">
      <feFlood flood-opacity="0" result="BackgroundImageFix"/>
      <feBlend mode="normal" in="SourceGraphic" in2="BackgroundImageFix" result="shape"/>
      <feGaussianBlur stdDeviation="37.5" result="effect1_foregroundBlur_184_68"/>
    </filter>
  </defs>
</svg>
